<?xml version="1.0" standalone="no"?>
<!DOCTYPE svg PUBLIC "-//W3C//DTD SVG 20010904//EN"
 "http://www.w3.org/TR/2001/REC-SVG-20010904/DTD/svg10.dtd">
<svg version="1.0" xmlns="http://www.w3.org/2000/svg"
 width="512.000000pt" height="512.000000pt" viewBox="0 0 512.000000 512.000000"
 preserveAspectRatio="xMidYMid meet">

<g transform="translate(0.000000,512.000000) scale(0.100000,-0.100000)"
fill="#000000" stroke="none">
<path d="M2321 5110 c-497 -48 -990 -251 -1376 -565 -114 -92 -294 -274 -384
-387 -229 -287 -417 -675 -495 -1023 -49 -218 -60 -325 -60 -575 0 -250 11
-357 60 -575 79 -355 272 -749 509 -1040 92 -114 274 -294 387 -384 287 -229
675 -417 1023 -495 218 -49 325 -60 575 -60 250 0 357 11 575 60 261 58 603
204 828 353 389 259 688 599 893 1016 125 255 196 484 241 775 24 161 24 539
0 700 -45 291 -116 520 -241 775 -134 272 -283 480 -498 692 -211 209 -404
346 -673 478 -252 124 -486 197 -765 240 -126 19 -468 27 -599 15z m594 -339
c240 -40 419 -98 640 -206 570 -280 1011 -818 1170 -1431 54 -207 69 -331 69
-574 0 -243 -15 -367 -69 -574 -159 -613 -600 -1151 -1170 -1431 -221 -108
-397 -165 -645 -207 -180 -31 -520 -31 -700 0 -248 42 -424 99 -645 207 -570
280 -1011 818 -1170 1431 -54 207 -69 331 -69 574 0 243 15 367 69 574 55 212
170 470 290 651 382 574 972 932 1660 1005 129 14 434 4 570 -19z"/>
<path d="M2495 3666 c-37 -17 -70 -52 -84 -89 -7 -18 -11 -173 -11 -442 l0
-414 -429 -3 c-416 -3 -430 -4 -457 -24 -53 -39 -69 -71 -69 -134 0 -63 16
-95 69 -134 27 -20 41 -21 456 -24 l429 -3 3 -429 c3 -415 4 -429 24 -456 39
-53 71 -69 134 -69 63 0 95 16 134 69 20 27 21 41 24 456 l3 429 429 3 c415 3
429 4 456 24 53 39 69 71 69 134 0 63 -16 95 -69 134 -27 20 -41 21 -456 24
l-429 3 -3 429 c-3 415 -4 429 -24 456 -11 15 -32 37 -46 47 -34 25 -113 32
-153 13z"/>
</g>
</svg>
